<svg xmlns="http://www.w3.org/2000/svg" width="45" height="32.144" viewBox="0 0 45 32.144">
  <path id="Trazado_88" data-name="Trazado 88" d="M45.393,15.643H38.217L32.266,6.716A1.607,1.607,0,1,0,29.591,8.5l4.764,7.144H14.645L19.409,8.5a1.607,1.607,0,0,0-2.674-1.784l-5.951,8.928H3.607a1.607,1.607,0,1,0,0,3.214H5.343L6.582,33.722a4.848,4.848,0,0,0,4.8,4.421H37.614a4.85,4.85,0,0,0,4.805-4.421l1.238-14.864h1.736a1.607,1.607,0,1,0,0-3.214ZM18.071,31.715a1.607,1.607,0,0,1-3.214,0V23.679a1.607,1.607,0,0,1,3.214,0Zm8.036,0a1.607,1.607,0,0,1-3.214,0V23.679a1.607,1.607,0,0,1,3.214,0Zm8.036,0a1.607,1.607,0,1,1-3.214,0V23.679a1.607,1.607,0,1,1,3.214,0Z" transform="translate(-2 -5.999)" fill="#207b25"/>
</svg>
