<svg xmlns="http://www.w3.org/2000/svg" width="40" height="38.134" viewBox="0 0 40 38.134">
  <path id="Trazado_89" data-name="Trazado 89" d="M41.969,17.729a1.872,1.872,0,0,0-1.6-2.2l-11.391-1.6L23.783,3.54a1.56,1.56,0,0,0-.8-.8,2.022,2.022,0,0,0-2.8.8l-5,10.392L3.8,15.531a1.208,1.208,0,0,0-1.2.6,1.932,1.932,0,0,0,0,2.8l8.194,7.994-2,11.391a2.535,2.535,0,0,0,.2,1.2,2.022,2.022,0,0,0,2.8.8l10.192-5.4,10.192,5.4a1.5,1.5,0,0,0,1,.2h.4a2.073,2.073,0,0,0,1.6-2.4l-2-11.391,8.194-7.994A1.1,1.1,0,0,0,41.969,17.729Z" transform="translate(-2 -2.459)" fill="#d2d2d2"/>
</svg>
