<svg xmlns="http://www.w3.org/2000/svg" width="32" height="22" viewBox="0 0 32 22">
  <path id="Trazado_39" data-name="Trazado 39" d="M30,6H2A2,2,0,0,0,0,8V26a2,2,0,0,0,2,2H30a2,2,0,0,0,2-2V8A2,2,0,0,0,30,6ZM27.166,18H15a1,1,0,0,1,0-2H27.166a1,1,0,0,1,0,2Zm1,3a1,1,0,0,1-1,1H15a1,1,0,0,1,0-2H27.166A1,1,0,0,1,28.166,21Zm-1-7H15a1,1,0,0,1,0-2H27.166a1,1,0,0,1,0,2ZM8.048,15.8C10.23,15.8,12,18.17,12,21.1s-7.906,2.928-7.906,0,1.77-5.3,3.954-5.3ZM5.582,12.416A2.415,2.415,0,1,1,8,14.831a2.415,2.415,0,0,1-2.415-2.415Z" transform="translate(0 -6)" fill="#fff"/>
</svg>
