<svg xmlns="http://www.w3.org/2000/svg" width="40" height="40.034" viewBox="0 0 40 40.034">
  <path id="Trazado_90" data-name="Trazado 90" d="M22.019,2A20.038,20.038,0,0,0,7.291,35.583h0a20.038,20.038,0,0,0,29.455,0h0A20.038,20.038,0,0,0,22.019,2Zm0,36.068A16.03,16.03,0,0,1,10.9,33.559a12.023,12.023,0,0,1,22.242,0A16.03,16.03,0,0,1,22.019,38.068ZM18.011,18.03a4.008,4.008,0,1,1,4.008,4.008A4.008,4.008,0,0,1,18.011,18.03ZM35.865,30.053A16.03,16.03,0,0,0,28.03,23.28a8.015,8.015,0,1,0-12.023,0,16.03,16.03,0,0,0-7.835,6.773,15.87,15.87,0,0,1-2.184-8.015,16.03,16.03,0,1,1,32.06,0A15.87,15.87,0,0,1,35.865,30.053Z" transform="translate(-2.019 -2)" fill="#d2d2d2"/>
</svg>
